<svg width="22" height="24" viewBox="0 0 22 24" fill="none" xmlns="http://www.w3.org/2000/svg">
<path d="M11.9166 12.175L13.9791 14.425C14.1471 14.6083 14.2312 14.8377 14.2312 15.113C14.2312 15.3877 14.1471 15.625 13.9791 15.825C13.7958 16.025 13.5782 16.125 13.3264 16.125C13.074 16.125 12.8562 16.025 12.6728 15.825L10.7249 13.7C10.511 13.4667 10.3506 13.2083 10.2437 12.925C10.1367 12.6417 10.0833 12.3333 10.0833 12V9C10.0833 8.71667 10.1713 8.479 10.3473 8.287C10.5226 8.09567 10.7402 8 10.9999 8C11.2596 8 11.4775 8.09567 11.6535 8.287C11.8289 8.479 11.9166 8.71667 11.9166 9V12.175ZM10.9999 4C11.2596 4 11.4775 4.09567 11.6535 4.287C11.8289 4.479 11.9166 4.71667 11.9166 5C11.9166 5.28333 11.8289 5.521 11.6535 5.713C11.4775 5.90433 11.2596 6 10.9999 6C10.7402 6 10.5226 5.90433 10.3473 5.713C10.1713 5.521 10.0833 5.28333 10.0833 5C10.0833 4.71667 10.1713 4.479 10.3473 4.287C10.5226 4.09567 10.7402 4 10.9999 4ZM18.3333 12C18.3333 12.2833 18.2453 12.5207 18.0693 12.712C17.8939 12.904 17.6763 13 17.4166 13C17.1569 13 16.9393 12.904 16.7639 12.712C16.5879 12.5207 16.4999 12.2833 16.4999 12C16.4999 11.7167 16.5879 11.479 16.7639 11.287C16.9393 11.0957 17.1569 11 17.4166 11C17.6763 11 17.8939 11.0957 18.0693 11.287C18.2453 11.479 18.3333 11.7167 18.3333 12ZM10.9999 18C11.2596 18 11.4775 18.096 11.6535 18.288C11.8289 18.4793 11.9166 18.7167 11.9166 19C11.9166 19.2833 11.8289 19.5207 11.6535 19.712C11.4775 19.904 11.2596 20 10.9999 20C10.7402 20 10.5226 19.904 10.3473 19.712C10.1713 19.5207 10.0833 19.2833 10.0833 19C10.0833 18.7167 10.1713 18.4793 10.3473 18.288C10.5226 18.096 10.7402 18 10.9999 18ZM5.49992 12C5.49992 12.2833 5.41222 12.5207 5.23684 12.712C5.06084 12.904 4.84297 13 4.58325 13C4.32353 13 4.10567 12.904 3.92967 12.712C3.75428 12.5207 3.66659 12.2833 3.66659 12C3.66659 11.7167 3.75428 11.479 3.92967 11.287C4.10567 11.0957 4.32353 11 4.58325 11C4.84297 11 5.06084 11.0957 5.23684 11.287C5.41222 11.479 5.49992 11.7167 5.49992 12ZM10.9999 22C9.73186 22 8.5402 21.7373 7.42492 21.212C6.30964 20.6873 5.3395 19.975 4.5145 19.075C3.6895 18.175 3.03653 17.1167 2.55559 15.9C2.07403 14.6833 1.83325 13.3833 1.83325 12C1.83325 10.6167 2.07403 9.31667 2.55559 8.1C3.03653 6.88333 3.6895 5.825 4.5145 4.925C5.3395 4.025 6.30964 3.31233 7.42492 2.787C8.5402 2.26233 9.73186 2 10.9999 2C12.268 2 13.4596 2.26233 14.5749 2.787C15.6902 3.31233 16.6603 4.025 17.4853 4.925C18.3103 5.825 18.9633 6.88333 19.4443 8.1C19.9258 9.31667 20.1666 10.6167 20.1666 12C20.1666 13.3833 19.9258 14.6833 19.4443 15.9C18.9633 17.1167 18.3103 18.175 17.4853 19.075C16.6603 19.975 15.6902 20.6873 14.5749 21.212C13.4596 21.7373 12.268 22 10.9999 22ZM10.9999 20C13.0471 20 14.7812 19.225 16.202 17.675C17.6228 16.125 18.3333 14.2333 18.3333 12C18.3333 9.76667 17.6228 7.875 16.202 6.325C14.7812 4.775 13.0471 4 10.9999 4C8.9527 4 7.21867 4.775 5.79784 6.325C4.377 7.875 3.66659 9.76667 3.66659 12C3.66659 14.2333 4.377 16.125 5.79784 17.675C7.21867 19.225 8.9527 20 10.9999 20Z" fill="black"/>
</svg>
