<svg aria-hidden="true" style="position: absolute; width: 0; height: 0; overflow: hidden;" version="1.1" xmlns="http://www.w3.org/2000/svg" xmlns:xlink="http://www.w3.org/1999/xlink">
<defs>
<symbol id="icon-clock_icon" viewBox="0 0 32 32">
<path d="M17.222 16.233l2.75 3c0.224 0.244 0.336 0.55 0.336 0.917s-0.112 0.683-0.336 0.949c-0.244 0.267-0.535 0.4-0.87 0.4s-0.627-0.133-0.871-0.4l-2.597-2.833c-0.285-0.311-0.499-0.656-0.642-1.033s-0.214-0.789-0.214-1.233v-4c0-0.378 0.117-0.695 0.352-0.951s0.524-0.383 0.87-0.383 0.637 0.128 0.871 0.383c0.234 0.256 0.351 0.573 0.351 0.951v4.233zM16 5.333c0.346 0 0.637 0.128 0.871 0.383s0.351 0.573 0.351 0.951-0.117 0.695-0.351 0.951c-0.235 0.255-0.525 0.383-0.871 0.383s-0.636-0.128-0.87-0.383c-0.235-0.256-0.352-0.573-0.352-0.951s0.117-0.695 0.352-0.951c0.234-0.255 0.524-0.383 0.87-0.383zM25.778 16c0 0.378-0.117 0.694-0.352 0.949s-0.524 0.384-0.87 0.384-0.636-0.128-0.87-0.384c-0.235-0.255-0.352-0.572-0.352-0.949s0.117-0.695 0.352-0.951c0.234-0.255 0.524-0.383 0.87-0.383s0.636 0.128 0.87 0.383c0.235 0.256 0.352 0.573 0.352 0.951zM16 24c0.346 0 0.637 0.128 0.871 0.384s0.351 0.572 0.351 0.949-0.117 0.694-0.351 0.949c-0.235 0.256-0.525 0.384-0.871 0.384s-0.636-0.128-0.87-0.384c-0.235-0.255-0.352-0.572-0.352-0.949s0.117-0.694 0.352-0.949c0.234-0.256 0.524-0.384 0.87-0.384zM8.667 16c0 0.378-0.117 0.694-0.351 0.949s-0.525 0.384-0.871 0.384-0.637-0.128-0.871-0.384c-0.234-0.255-0.351-0.572-0.351-0.949s0.117-0.695 0.351-0.951c0.235-0.255 0.525-0.383 0.871-0.383s0.637 0.128 0.871 0.383c0.234 0.256 0.351 0.573 0.351 0.951zM16 29.333c-1.691 0-3.28-0.35-4.767-1.051s-2.781-1.649-3.881-2.849-1.971-2.611-2.612-4.233c-0.642-1.622-0.963-3.356-0.963-5.2s0.321-3.578 0.963-5.2c0.641-1.622 1.512-3.033 2.612-4.233s2.394-2.15 3.881-2.851c1.487-0.7 3.076-1.049 4.767-1.049s3.28 0.35 4.767 1.049c1.487 0.7 2.781 1.651 3.881 2.851s1.971 2.611 2.612 4.233c0.642 1.622 0.963 3.356 0.963 5.2s-0.321 3.578-0.963 5.2c-0.641 1.622-1.512 3.033-2.612 4.233s-2.393 2.15-3.881 2.849c-1.487 0.7-3.076 1.051-4.767 1.051zM16 26.667c2.73 0 5.042-1.033 6.936-3.1s2.842-4.589 2.842-7.567c0-2.978-0.947-5.5-2.842-7.567s-4.207-3.1-6.936-3.1c-2.73 0-5.042 1.033-6.936 3.1s-2.842 4.589-2.842 7.567c0 2.978 0.947 5.5 2.842 7.567s4.206 3.1 6.936 3.1z"></path>
</symbol>
<symbol id="icon-grey_left_arrow" viewBox="0 0 32 32">
<path fill="#787878" style="fill: var(--color1, #787878)" d="M15.1 20.433c0.244 0.244 0.55 0.361 0.917 0.349s0.672-0.138 0.916-0.383 0.367-0.556 0.367-0.933c0-0.378-0.122-0.689-0.367-0.933l-1.2-1.2h4.3c0.378 0 0.689-0.128 0.933-0.384s0.367-0.572 0.367-0.949-0.128-0.695-0.383-0.951c-0.256-0.255-0.573-0.383-0.951-0.383h-4.267l1.233-1.233c0.244-0.244 0.361-0.55 0.351-0.917s-0.14-0.672-0.384-0.916-0.556-0.367-0.933-0.367c-0.378 0-0.689 0.122-0.933 0.367l-3.467 3.467c-0.267 0.267-0.4 0.578-0.4 0.933s0.133 0.667 0.4 0.933l3.5 3.5zM16 29.333c-1.844 0-3.578-0.35-5.2-1.051s-3.033-1.649-4.233-2.849-2.15-2.611-2.849-4.233c-0.7-1.622-1.051-3.356-1.051-5.2s0.35-3.578 1.051-5.2c0.7-1.622 1.649-3.033 2.849-4.233s2.611-2.15 4.233-2.851c1.622-0.7 3.356-1.049 5.2-1.049s3.578 0.35 5.2 1.049c1.622 0.7 3.033 1.651 4.233 2.851s2.15 2.611 2.849 4.233c0.7 1.622 1.051 3.356 1.051 5.2s-0.35 3.578-1.051 5.2c-0.7 1.622-1.649 3.033-2.849 4.233s-2.611 2.15-4.233 2.849c-1.622 0.7-3.356 1.051-5.2 1.051zM16 26.667c2.956 0 5.472-1.039 7.551-3.116s3.116-4.595 3.116-7.551c0-2.956-1.039-5.472-3.116-7.551s-4.595-3.116-7.551-3.116c-2.956 0-5.472 1.039-7.549 3.116s-3.117 4.595-3.117 7.551c0 2.956 1.039 5.472 3.117 7.551s4.594 3.116 7.549 3.116z"></path>
</symbol>
<symbol id="icon-kebab_meny" viewBox="0 0 32 32">
<path d="M5.333 24c-0.378 0-0.694-0.128-0.949-0.384s-0.384-0.572-0.384-0.949c0-0.378 0.128-0.694 0.384-0.949s0.572-0.384 0.949-0.384h21.333c0.378 0 0.694 0.128 0.949 0.384s0.384 0.572 0.384 0.949c0 0.378-0.128 0.694-0.384 0.949s-0.572 0.384-0.949 0.384h-21.333zM5.333 17.333c-0.378 0-0.694-0.128-0.949-0.384s-0.384-0.572-0.384-0.949 0.128-0.695 0.384-0.951c0.255-0.255 0.572-0.383 0.949-0.383h21.333c0.378 0 0.694 0.127 0.949 0.383s0.384 0.573 0.384 0.951-0.128 0.694-0.384 0.949c-0.255 0.256-0.572 0.384-0.949 0.384h-21.333zM5.333 10.667c-0.378 0-0.694-0.128-0.949-0.383s-0.384-0.573-0.384-0.951 0.128-0.695 0.384-0.951c0.255-0.255 0.572-0.383 0.949-0.383h21.333c0.378 0 0.694 0.128 0.949 0.383s0.384 0.573 0.384 0.951-0.128 0.695-0.384 0.951c-0.255 0.255-0.572 0.383-0.949 0.383h-21.333z"></path>
</symbol>
<symbol id="icon-Logo" viewBox="0 0 32 32">
<path fill="" style="" d="M20.413 25.2c-1.28 1.333-2.747 2.707-4.413 4.133-7.107-6.067-10.667-11.307-10.667-15.733 0-6.64 5.067-10.933 10.667-10.933 5.333 0 10.187 3.893 10.627 10h4.707l-6 6-6-6h4.627c-0.427-4.347-3.787-7.333-7.96-7.333-4.467 0-8 3.427-8 8.267 0 3.12 2.6 7.253 8 12.187 0.853-0.787 1.64-1.547 2.36-2.28-0.235-0.463-0.358-0.974-0.36-1.493 0-0.884 0.351-1.732 0.976-2.357s1.473-0.976 2.357-0.976c0.884 0 1.732 0.351 2.357 0.976s0.976 1.473 0.976 2.357c-0 0.516-0.121 1.024-0.352 1.485s-0.566 0.862-0.979 1.171-0.892 0.518-1.399 0.61c-0.507 0.092-1.029 0.065-1.524-0.080z"></path>
</symbol>
<symbol id="icon-orange_right_arrow" viewBox="0 0 32 32">
<path fill="#fa793c" style="fill: var(--color2, #fa793c)" d="M16.933 20.4l3.467-3.467c0.244-0.244 0.367-0.556 0.367-0.933s-0.122-0.689-0.367-0.933l-3.5-3.5c-0.244-0.244-0.55-0.361-0.916-0.351s-0.673 0.14-0.917 0.384-0.367 0.556-0.367 0.933c0 0.378 0.122 0.689 0.367 0.933l1.2 1.2h-4.3c-0.378 0-0.689 0.128-0.933 0.383s-0.367 0.573-0.367 0.951 0.128 0.694 0.384 0.949c0.255 0.256 0.572 0.384 0.949 0.384h4.267l-1.233 1.233c-0.244 0.244-0.361 0.55-0.351 0.917s0.14 0.672 0.384 0.916 0.556 0.367 0.933 0.367c0.378 0 0.689-0.122 0.933-0.367zM16 29.333c-1.844 0-3.578-0.35-5.2-1.051s-3.033-1.649-4.233-2.849-2.15-2.611-2.849-4.233c-0.7-1.622-1.051-3.356-1.051-5.2s0.35-3.578 1.051-5.2c0.7-1.622 1.649-3.033 2.849-4.233s2.611-2.15 4.233-2.851c1.622-0.7 3.356-1.049 5.2-1.049s3.578 0.35 5.2 1.049c1.622 0.7 3.033 1.651 4.233 2.851s2.15 2.611 2.849 4.233c0.7 1.622 1.051 3.356 1.051 5.2s-0.35 3.578-1.051 5.2c-0.7 1.622-1.649 3.033-2.849 4.233s-2.611 2.15-4.233 2.849c-1.622 0.7-3.356 1.051-5.2 1.051z"></path>
</symbol>
<symbol id="icon-profile_icon" viewBox="0 0 32 32">
<path d="M16 25.6c-3.333 0-6.28-1.707-8-4.267 0.040-2.667 5.333-4.133 8-4.133s7.96 1.467 8 4.133c-0.881 1.313-2.072 2.388-3.467 3.132s-2.952 1.134-4.533 1.134zM16 6.667c1.061 0 2.078 0.421 2.828 1.172s1.172 1.768 1.172 2.828c0 1.061-0.421 2.078-1.172 2.828s-1.768 1.172-2.828 1.172c-1.061 0-2.078-0.421-2.828-1.172s-1.172-1.768-1.172-2.828c0-1.061 0.421-2.078 1.172-2.828s1.768-1.172 2.828-1.172zM16 2.667c-1.751 0-3.485 0.345-5.102 1.015s-3.088 1.652-4.326 2.89c-2.5 2.501-3.905 5.892-3.905 9.428s1.405 6.928 3.905 9.428c1.238 1.238 2.708 2.22 4.326 2.89s3.351 1.015 5.102 1.015c3.536 0 6.928-1.405 9.428-3.905s3.905-5.892 3.905-9.428c0-7.373-6-13.333-13.333-13.333z"></path>
</symbol>
</defs>
</svg>
